<mxfile host="app.diagrams.net" agent="Mozilla/5.0 (Windows NT 10.0; Win64; x64) AppleWebKit/537.36 (KHTML, like Gecko) Chrome/141.0.0.0 Safari/537.36" version="28.2.5">
  <diagram name="Page-1" id="_fk3Os7Ch218tHI5FZ9S">
    <mxGraphModel dx="4753" dy="2590" grid="1" gridSize="10" guides="1" tooltips="1" connect="1" arrows="1" fold="1" page="1" pageScale="1" pageWidth="3300" pageHeight="4681" math="0" shadow="0">
      <root>
        <mxCell id="0" />
        <mxCell id="1" parent="0" />
        <mxCell id="jfM18ZlWNJr8qz_LLnsO-4" style="edgeStyle=orthogonalEdgeStyle;rounded=0;orthogonalLoop=1;jettySize=auto;html=1;exitX=0.5;exitY=1;exitDx=0;exitDy=0;entryX=0.5;entryY=0;entryDx=0;entryDy=0;" edge="1" parent="1" source="jfM18ZlWNJr8qz_LLnsO-1" target="jfM18ZlWNJr8qz_LLnsO-3">
          <mxGeometry relative="1" as="geometry" />
        </mxCell>
        <mxCell id="jfM18ZlWNJr8qz_LLnsO-1" value="START" style="rounded=1;whiteSpace=wrap;html=1;arcSize=45;" vertex="1" parent="1">
          <mxGeometry x="448" y="152" width="210" height="70" as="geometry" />
        </mxCell>
        <mxCell id="jfM18ZlWNJr8qz_LLnsO-35" style="edgeStyle=orthogonalEdgeStyle;rounded=0;orthogonalLoop=1;jettySize=auto;html=1;entryX=0.5;entryY=0;entryDx=0;entryDy=0;" edge="1" parent="1" source="jfM18ZlWNJr8qz_LLnsO-2" target="jfM18ZlWNJr8qz_LLnsO-34">
          <mxGeometry relative="1" as="geometry" />
        </mxCell>
        <mxCell id="jfM18ZlWNJr8qz_LLnsO-2" value="START" style="rounded=1;whiteSpace=wrap;html=1;arcSize=45;" vertex="1" parent="1">
          <mxGeometry x="1790" y="152" width="210" height="70" as="geometry" />
        </mxCell>
        <mxCell id="jfM18ZlWNJr8qz_LLnsO-6" style="edgeStyle=orthogonalEdgeStyle;rounded=0;orthogonalLoop=1;jettySize=auto;html=1;" edge="1" parent="1" source="jfM18ZlWNJr8qz_LLnsO-3" target="jfM18ZlWNJr8qz_LLnsO-5">
          <mxGeometry relative="1" as="geometry" />
        </mxCell>
        <mxCell id="jfM18ZlWNJr8qz_LLnsO-3" value="int n" style="shape=parallelogram;perimeter=parallelogramPerimeter;whiteSpace=wrap;html=1;fixedSize=1;" vertex="1" parent="1">
          <mxGeometry x="468" y="312" width="170" height="70" as="geometry" />
        </mxCell>
        <mxCell id="jfM18ZlWNJr8qz_LLnsO-8" style="edgeStyle=orthogonalEdgeStyle;rounded=0;orthogonalLoop=1;jettySize=auto;html=1;entryX=0.5;entryY=0;entryDx=0;entryDy=0;" edge="1" parent="1" source="jfM18ZlWNJr8qz_LLnsO-5" target="jfM18ZlWNJr8qz_LLnsO-7">
          <mxGeometry relative="1" as="geometry" />
        </mxCell>
        <mxCell id="jfM18ZlWNJr8qz_LLnsO-5" value="int a = n%3&lt;div&gt;int b = n%7&lt;/div&gt;" style="rounded=0;whiteSpace=wrap;html=1;" vertex="1" parent="1">
          <mxGeometry x="453" y="465" width="200" height="90" as="geometry" />
        </mxCell>
        <mxCell id="jfM18ZlWNJr8qz_LLnsO-9" style="edgeStyle=orthogonalEdgeStyle;rounded=0;orthogonalLoop=1;jettySize=auto;html=1;" edge="1" parent="1" source="jfM18ZlWNJr8qz_LLnsO-7">
          <mxGeometry relative="1" as="geometry">
            <mxPoint x="758" y="687" as="targetPoint" />
          </mxGeometry>
        </mxCell>
        <mxCell id="jfM18ZlWNJr8qz_LLnsO-11" value="False" style="edgeLabel;html=1;align=center;verticalAlign=middle;resizable=0;points=[];" vertex="1" connectable="0" parent="jfM18ZlWNJr8qz_LLnsO-9">
          <mxGeometry x="-0.168" y="1" relative="1" as="geometry">
            <mxPoint as="offset" />
          </mxGeometry>
        </mxCell>
        <mxCell id="jfM18ZlWNJr8qz_LLnsO-15" style="edgeStyle=orthogonalEdgeStyle;rounded=0;orthogonalLoop=1;jettySize=auto;html=1;entryX=0.5;entryY=0;entryDx=0;entryDy=0;" edge="1" parent="1" source="jfM18ZlWNJr8qz_LLnsO-7" target="jfM18ZlWNJr8qz_LLnsO-14">
          <mxGeometry relative="1" as="geometry" />
        </mxCell>
        <mxCell id="jfM18ZlWNJr8qz_LLnsO-16" value="True" style="edgeLabel;html=1;align=center;verticalAlign=middle;resizable=0;points=[];" vertex="1" connectable="0" parent="jfM18ZlWNJr8qz_LLnsO-15">
          <mxGeometry x="0.0444" y="-1" relative="1" as="geometry">
            <mxPoint as="offset" />
          </mxGeometry>
        </mxCell>
        <mxCell id="jfM18ZlWNJr8qz_LLnsO-7" value="a == 0" style="rhombus;whiteSpace=wrap;html=1;" vertex="1" parent="1">
          <mxGeometry x="473" y="612" width="160" height="150" as="geometry" />
        </mxCell>
        <mxCell id="jfM18ZlWNJr8qz_LLnsO-13" style="edgeStyle=orthogonalEdgeStyle;rounded=0;orthogonalLoop=1;jettySize=auto;html=1;entryX=0;entryY=0.5;entryDx=0;entryDy=0;" edge="1" parent="1" source="jfM18ZlWNJr8qz_LLnsO-10" target="jfM18ZlWNJr8qz_LLnsO-12">
          <mxGeometry relative="1" as="geometry" />
        </mxCell>
        <mxCell id="jfM18ZlWNJr8qz_LLnsO-30" value="False" style="edgeLabel;html=1;align=center;verticalAlign=middle;resizable=0;points=[];" vertex="1" connectable="0" parent="jfM18ZlWNJr8qz_LLnsO-13">
          <mxGeometry x="-0.0362" y="-3" relative="1" as="geometry">
            <mxPoint x="-1" as="offset" />
          </mxGeometry>
        </mxCell>
        <mxCell id="jfM18ZlWNJr8qz_LLnsO-10" value="b == 0" style="rhombus;whiteSpace=wrap;html=1;" vertex="1" parent="1">
          <mxGeometry x="759" y="612" width="160" height="150" as="geometry" />
        </mxCell>
        <mxCell id="jfM18ZlWNJr8qz_LLnsO-33" style="edgeStyle=orthogonalEdgeStyle;rounded=0;orthogonalLoop=1;jettySize=auto;html=1;entryX=0.5;entryY=1;entryDx=0;entryDy=0;" edge="1" parent="1" source="jfM18ZlWNJr8qz_LLnsO-12" target="jfM18ZlWNJr8qz_LLnsO-25">
          <mxGeometry relative="1" as="geometry">
            <Array as="points">
              <mxPoint x="1100" y="1580" />
              <mxPoint x="553" y="1580" />
            </Array>
          </mxGeometry>
        </mxCell>
        <mxCell id="jfM18ZlWNJr8qz_LLnsO-12" value="&quot;N ədədi həm 3-ə, həm də 7-yə bölünmür.&quot;" style="shape=document;whiteSpace=wrap;html=1;boundedLbl=1;" vertex="1" parent="1">
          <mxGeometry x="1018" y="637" width="180" height="100" as="geometry" />
        </mxCell>
        <mxCell id="jfM18ZlWNJr8qz_LLnsO-23" style="edgeStyle=orthogonalEdgeStyle;rounded=0;orthogonalLoop=1;jettySize=auto;html=1;entryX=1;entryY=0.5;entryDx=0;entryDy=0;" edge="1" parent="1" source="jfM18ZlWNJr8qz_LLnsO-14" target="jfM18ZlWNJr8qz_LLnsO-22">
          <mxGeometry relative="1" as="geometry" />
        </mxCell>
        <mxCell id="jfM18ZlWNJr8qz_LLnsO-27" value="False" style="edgeLabel;html=1;align=center;verticalAlign=middle;resizable=0;points=[];" vertex="1" connectable="0" parent="jfM18ZlWNJr8qz_LLnsO-23">
          <mxGeometry x="-0.0031" y="-1" relative="1" as="geometry">
            <mxPoint as="offset" />
          </mxGeometry>
        </mxCell>
        <mxCell id="jfM18ZlWNJr8qz_LLnsO-14" value="b == 0" style="rhombus;whiteSpace=wrap;html=1;" vertex="1" parent="1">
          <mxGeometry x="473" y="852" width="160" height="150" as="geometry" />
        </mxCell>
        <mxCell id="jfM18ZlWNJr8qz_LLnsO-32" style="edgeStyle=orthogonalEdgeStyle;rounded=0;orthogonalLoop=1;jettySize=auto;html=1;entryX=1;entryY=0.5;entryDx=0;entryDy=0;" edge="1" parent="1" source="jfM18ZlWNJr8qz_LLnsO-17" target="jfM18ZlWNJr8qz_LLnsO-25">
          <mxGeometry relative="1" as="geometry">
            <Array as="points">
              <mxPoint x="840" y="1385" />
            </Array>
          </mxGeometry>
        </mxCell>
        <mxCell id="jfM18ZlWNJr8qz_LLnsO-17" value="&quot;N ədədi 3-ə bölünmürç amma 7-yə bölünür.&quot;" style="shape=document;whiteSpace=wrap;html=1;boundedLbl=1;" vertex="1" parent="1">
          <mxGeometry x="756" y="862" width="180" height="100" as="geometry" />
        </mxCell>
        <mxCell id="jfM18ZlWNJr8qz_LLnsO-18" style="edgeStyle=orthogonalEdgeStyle;rounded=0;orthogonalLoop=1;jettySize=auto;html=1;entryX=0.461;entryY=0.02;entryDx=0;entryDy=0;entryPerimeter=0;" edge="1" parent="1" source="jfM18ZlWNJr8qz_LLnsO-10" target="jfM18ZlWNJr8qz_LLnsO-17">
          <mxGeometry relative="1" as="geometry" />
        </mxCell>
        <mxCell id="jfM18ZlWNJr8qz_LLnsO-29" value="True" style="edgeLabel;html=1;align=center;verticalAlign=middle;resizable=0;points=[];" vertex="1" connectable="0" parent="jfM18ZlWNJr8qz_LLnsO-18">
          <mxGeometry x="-0.0909" y="-1" relative="1" as="geometry">
            <mxPoint as="offset" />
          </mxGeometry>
        </mxCell>
        <mxCell id="jfM18ZlWNJr8qz_LLnsO-26" style="edgeStyle=orthogonalEdgeStyle;rounded=0;orthogonalLoop=1;jettySize=auto;html=1;entryX=0.5;entryY=0;entryDx=0;entryDy=0;" edge="1" parent="1" source="jfM18ZlWNJr8qz_LLnsO-20" target="jfM18ZlWNJr8qz_LLnsO-25">
          <mxGeometry relative="1" as="geometry" />
        </mxCell>
        <mxCell id="jfM18ZlWNJr8qz_LLnsO-20" value="&quot;N ədədi həm 3-ə həm də 7-yə bölünür.&quot;" style="shape=document;whiteSpace=wrap;html=1;boundedLbl=1;" vertex="1" parent="1">
          <mxGeometry x="463" y="1110" width="180" height="100" as="geometry" />
        </mxCell>
        <mxCell id="jfM18ZlWNJr8qz_LLnsO-21" style="edgeStyle=orthogonalEdgeStyle;rounded=0;orthogonalLoop=1;jettySize=auto;html=1;entryX=0.5;entryY=0;entryDx=0;entryDy=0;" edge="1" parent="1" source="jfM18ZlWNJr8qz_LLnsO-14" target="jfM18ZlWNJr8qz_LLnsO-20">
          <mxGeometry relative="1" as="geometry" />
        </mxCell>
        <mxCell id="jfM18ZlWNJr8qz_LLnsO-28" value="True" style="edgeLabel;html=1;align=center;verticalAlign=middle;resizable=0;points=[];" vertex="1" connectable="0" parent="jfM18ZlWNJr8qz_LLnsO-21">
          <mxGeometry x="-0.1852" y="3" relative="1" as="geometry">
            <mxPoint as="offset" />
          </mxGeometry>
        </mxCell>
        <mxCell id="jfM18ZlWNJr8qz_LLnsO-31" style="edgeStyle=orthogonalEdgeStyle;rounded=0;orthogonalLoop=1;jettySize=auto;html=1;entryX=0;entryY=0.5;entryDx=0;entryDy=0;" edge="1" parent="1" source="jfM18ZlWNJr8qz_LLnsO-22" target="jfM18ZlWNJr8qz_LLnsO-25">
          <mxGeometry relative="1" as="geometry">
            <Array as="points">
              <mxPoint x="240" y="1385" />
            </Array>
          </mxGeometry>
        </mxCell>
        <mxCell id="jfM18ZlWNJr8qz_LLnsO-22" value="&quot;N ədədi 3-ə bölünmürç amma 7-yə bölünür.&quot;" style="shape=document;whiteSpace=wrap;html=1;boundedLbl=1;" vertex="1" parent="1">
          <mxGeometry x="160" y="877" width="180" height="100" as="geometry" />
        </mxCell>
        <mxCell id="jfM18ZlWNJr8qz_LLnsO-25" value="END" style="rounded=1;whiteSpace=wrap;html=1;arcSize=45;" vertex="1" parent="1">
          <mxGeometry x="448" y="1350" width="210" height="70" as="geometry" />
        </mxCell>
        <mxCell id="jfM18ZlWNJr8qz_LLnsO-38" style="edgeStyle=orthogonalEdgeStyle;rounded=0;orthogonalLoop=1;jettySize=auto;html=1;" edge="1" parent="1" source="jfM18ZlWNJr8qz_LLnsO-34" target="jfM18ZlWNJr8qz_LLnsO-36">
          <mxGeometry relative="1" as="geometry" />
        </mxCell>
        <mxCell id="jfM18ZlWNJr8qz_LLnsO-34" value="int n&lt;div&gt;int m&lt;/div&gt;" style="shape=parallelogram;perimeter=parallelogramPerimeter;whiteSpace=wrap;html=1;fixedSize=1;" vertex="1" parent="1">
          <mxGeometry x="1810" y="360" width="170" height="70" as="geometry" />
        </mxCell>
        <mxCell id="jfM18ZlWNJr8qz_LLnsO-39" style="edgeStyle=orthogonalEdgeStyle;rounded=0;orthogonalLoop=1;jettySize=auto;html=1;entryX=0.5;entryY=0;entryDx=0;entryDy=0;" edge="1" parent="1" source="jfM18ZlWNJr8qz_LLnsO-36" target="jfM18ZlWNJr8qz_LLnsO-37">
          <mxGeometry relative="1" as="geometry" />
        </mxCell>
        <mxCell id="jfM18ZlWNJr8qz_LLnsO-36" value="int a = n%2&lt;div&gt;int b = m%2&lt;/div&gt;" style="rounded=0;whiteSpace=wrap;html=1;" vertex="1" parent="1">
          <mxGeometry x="1815" y="520" width="160" height="80" as="geometry" />
        </mxCell>
        <mxCell id="jfM18ZlWNJr8qz_LLnsO-41" style="edgeStyle=orthogonalEdgeStyle;rounded=0;orthogonalLoop=1;jettySize=auto;html=1;entryX=0;entryY=0.5;entryDx=0;entryDy=0;" edge="1" parent="1" source="jfM18ZlWNJr8qz_LLnsO-37" target="jfM18ZlWNJr8qz_LLnsO-40">
          <mxGeometry relative="1" as="geometry" />
        </mxCell>
        <mxCell id="jfM18ZlWNJr8qz_LLnsO-42" value="False" style="edgeLabel;html=1;align=center;verticalAlign=middle;resizable=0;points=[];" vertex="1" connectable="0" parent="jfM18ZlWNJr8qz_LLnsO-41">
          <mxGeometry x="0.09" y="3" relative="1" as="geometry">
            <mxPoint as="offset" />
          </mxGeometry>
        </mxCell>
        <mxCell id="jfM18ZlWNJr8qz_LLnsO-44" style="edgeStyle=orthogonalEdgeStyle;rounded=0;orthogonalLoop=1;jettySize=auto;html=1;entryX=0.5;entryY=0;entryDx=0;entryDy=0;" edge="1" parent="1" source="jfM18ZlWNJr8qz_LLnsO-37" target="jfM18ZlWNJr8qz_LLnsO-43">
          <mxGeometry relative="1" as="geometry" />
        </mxCell>
        <mxCell id="jfM18ZlWNJr8qz_LLnsO-45" value="True" style="edgeLabel;html=1;align=center;verticalAlign=middle;resizable=0;points=[];" vertex="1" connectable="0" parent="jfM18ZlWNJr8qz_LLnsO-44">
          <mxGeometry x="0.0364" y="6" relative="1" as="geometry">
            <mxPoint as="offset" />
          </mxGeometry>
        </mxCell>
        <mxCell id="jfM18ZlWNJr8qz_LLnsO-37" value="a == 0" style="rhombus;whiteSpace=wrap;html=1;" vertex="1" parent="1">
          <mxGeometry x="1830" y="700" width="130" height="130" as="geometry" />
        </mxCell>
        <mxCell id="jfM18ZlWNJr8qz_LLnsO-57" style="edgeStyle=orthogonalEdgeStyle;rounded=0;orthogonalLoop=1;jettySize=auto;html=1;entryX=1;entryY=0.5;entryDx=0;entryDy=0;" edge="1" parent="1" source="jfM18ZlWNJr8qz_LLnsO-40" target="jfM18ZlWNJr8qz_LLnsO-54">
          <mxGeometry relative="1" as="geometry">
            <Array as="points">
              <mxPoint x="2250" y="1633" />
            </Array>
          </mxGeometry>
        </mxCell>
        <mxCell id="jfM18ZlWNJr8qz_LLnsO-40" value="XƏTA! m və n ədədləri hər ikisi də cüt olmalidir!" style="shape=document;whiteSpace=wrap;html=1;boundedLbl=1;" vertex="1" parent="1">
          <mxGeometry x="2160" y="715" width="200" height="100" as="geometry" />
        </mxCell>
        <mxCell id="jfM18ZlWNJr8qz_LLnsO-46" style="edgeStyle=orthogonalEdgeStyle;rounded=0;orthogonalLoop=1;jettySize=auto;html=1;" edge="1" parent="1" source="jfM18ZlWNJr8qz_LLnsO-43">
          <mxGeometry relative="1" as="geometry">
            <mxPoint x="1690" y="1005" as="targetPoint" />
          </mxGeometry>
        </mxCell>
        <mxCell id="jfM18ZlWNJr8qz_LLnsO-48" value="False" style="edgeLabel;html=1;align=center;verticalAlign=middle;resizable=0;points=[];" vertex="1" connectable="0" parent="jfM18ZlWNJr8qz_LLnsO-46">
          <mxGeometry x="-0.0143" y="1" relative="1" as="geometry">
            <mxPoint as="offset" />
          </mxGeometry>
        </mxCell>
        <mxCell id="jfM18ZlWNJr8qz_LLnsO-50" style="edgeStyle=orthogonalEdgeStyle;rounded=0;orthogonalLoop=1;jettySize=auto;html=1;entryX=0.5;entryY=0;entryDx=0;entryDy=0;" edge="1" parent="1" source="jfM18ZlWNJr8qz_LLnsO-43" target="jfM18ZlWNJr8qz_LLnsO-49">
          <mxGeometry relative="1" as="geometry" />
        </mxCell>
        <mxCell id="jfM18ZlWNJr8qz_LLnsO-51" value="True" style="edgeLabel;html=1;align=center;verticalAlign=middle;resizable=0;points=[];" vertex="1" connectable="0" parent="jfM18ZlWNJr8qz_LLnsO-50">
          <mxGeometry x="0.0791" y="-3" relative="1" as="geometry">
            <mxPoint as="offset" />
          </mxGeometry>
        </mxCell>
        <mxCell id="jfM18ZlWNJr8qz_LLnsO-43" value="b == 0" style="rhombus;whiteSpace=wrap;html=1;" vertex="1" parent="1">
          <mxGeometry x="1830" y="940" width="130" height="130" as="geometry" />
        </mxCell>
        <mxCell id="jfM18ZlWNJr8qz_LLnsO-56" style="edgeStyle=orthogonalEdgeStyle;rounded=0;orthogonalLoop=1;jettySize=auto;html=1;entryX=0;entryY=0.5;entryDx=0;entryDy=0;" edge="1" parent="1" source="jfM18ZlWNJr8qz_LLnsO-47" target="jfM18ZlWNJr8qz_LLnsO-54">
          <mxGeometry relative="1" as="geometry">
            <Array as="points">
              <mxPoint x="1570" y="1633" />
            </Array>
          </mxGeometry>
        </mxCell>
        <mxCell id="jfM18ZlWNJr8qz_LLnsO-47" value="XƏTA! m və n ədədləri hər ikisi də cüt olmalidir!" style="shape=document;whiteSpace=wrap;html=1;boundedLbl=1;" vertex="1" parent="1">
          <mxGeometry x="1490" y="962" width="200" height="100" as="geometry" />
        </mxCell>
        <mxCell id="jfM18ZlWNJr8qz_LLnsO-53" style="edgeStyle=orthogonalEdgeStyle;rounded=0;orthogonalLoop=1;jettySize=auto;html=1;" edge="1" parent="1" source="jfM18ZlWNJr8qz_LLnsO-49" target="jfM18ZlWNJr8qz_LLnsO-52">
          <mxGeometry relative="1" as="geometry" />
        </mxCell>
        <mxCell id="jfM18ZlWNJr8qz_LLnsO-49" value="k = m + n" style="rounded=0;whiteSpace=wrap;html=1;" vertex="1" parent="1">
          <mxGeometry x="1809" y="1200" width="172.5" height="80" as="geometry" />
        </mxCell>
        <mxCell id="jfM18ZlWNJr8qz_LLnsO-55" style="edgeStyle=orthogonalEdgeStyle;rounded=0;orthogonalLoop=1;jettySize=auto;html=1;entryX=0.5;entryY=0;entryDx=0;entryDy=0;" edge="1" parent="1" source="jfM18ZlWNJr8qz_LLnsO-52" target="jfM18ZlWNJr8qz_LLnsO-54">
          <mxGeometry relative="1" as="geometry" />
        </mxCell>
        <mxCell id="jfM18ZlWNJr8qz_LLnsO-52" value="K" style="shape=document;whiteSpace=wrap;html=1;boundedLbl=1;" vertex="1" parent="1">
          <mxGeometry x="1825" y="1410" width="140" height="80" as="geometry" />
        </mxCell>
        <mxCell id="jfM18ZlWNJr8qz_LLnsO-54" value="END" style="rounded=1;whiteSpace=wrap;html=1;arcSize=45;" vertex="1" parent="1">
          <mxGeometry x="1810" y="1598" width="170" height="70" as="geometry" />
        </mxCell>
      </root>
    </mxGraphModel>
  </diagram>
</mxfile>
